<svg xmlns="http://www.w3.org/2000/svg" viewBox="0 0 200 200" role="img" aria-labelledby="title">
  <title id="title">UpCancer</title>
  <rect width="200" height="200" rx="100" fill="#fff"/>
  <path d="M58 42 92 11l34 31h-18v55c0 20-13 33-31 33S45 117 45 97V42z" fill="#72d9eb" stroke="#17212b" stroke-width="7"/>
  <path d="M108 48h31c21 0 34 12 34 31s-13 32-34 32h-13v32h-18zm18 18v27h12c10 0 16-5 16-14s-6-13-16-13z" fill="#72d9eb" stroke="#17212b" stroke-width="7" stroke-linejoin="round"/>
  <path d="M74 131c25-2 44-13 57-34" fill="none" stroke="#f4c62f" stroke-width="8" stroke-linecap="round"/>
  <text x="100" y="174" text-anchor="middle" font-family="Arial, sans-serif" font-size="24" font-weight="900" fill="#f4c62f" stroke="#17212b" stroke-width="1">CANCER</text>
</svg>
